<svg width="35" height="35" viewBox="0 0 35 35" fill="none" xmlns="http://www.w3.org/2000/svg">
<path d="M31.1473 13.1835L31.1255 13.1625C31.1238 13.1613 31.1224 13.1598 31.1215 13.1579L17.5006 0L3.87983 13.1576C3.87826 13.1591 3.8758 13.1622 3.8758 13.1622L3.85333 13.1832C1.77053 15.2065 0.447586 17.8442 0.0948177 20.6772C-0.25795 23.5101 0.379698 26.3757 1.90639 28.8184C3.43309 31.2612 5.76122 33.1409 8.52069 34.1585C11.2802 35.1762 14.3126 35.2737 17.136 34.4353C17.3735 34.3651 17.6275 34.3651 17.8651 34.4353C20.6882 35.2734 23.7205 35.1758 26.4798 34.158C29.2391 33.1402 31.567 31.2607 33.0936 28.8181C34.6202 26.3756 35.2579 23.5101 34.9053 20.6773C34.5526 17.8445 33.2299 15.2068 31.1473 13.1835ZM8.7232 21.8601C8.65689 21.9242 8.6043 22.0003 8.56844 22.0839C8.53256 22.1675 8.5141 22.2572 8.51412 22.3477C8.53835 24.67 9.21776 26.9418 10.4792 28.9188C10.5079 28.9637 10.5211 29.0162 10.517 29.0687C10.513 29.1212 10.4918 29.1711 10.4566 29.2114C10.4213 29.2517 10.3738 29.28 10.3209 29.2926C10.2679 29.3052 10.2122 29.3013 10.1616 29.2814C9.21332 28.8961 8.35182 28.3359 7.62531 27.6324C6.13646 26.1939 5.29946 24.2434 5.2981 22.2093C5.29675 20.1751 6.13117 18.2236 7.61812 16.7833L17.5006 7.23788L27.3826 16.7833C28.8698 18.2234 29.7045 20.175 29.703 22.2093C29.7018 24.2434 28.8647 26.1939 27.3757 27.6324C26.6492 28.3359 25.7877 28.8961 24.8396 29.2814C24.7889 29.3013 24.7332 29.3052 24.6802 29.2926C24.6273 29.28 24.5798 29.2515 24.5445 29.2114C24.5093 29.1711 24.488 29.1212 24.484 29.0685C24.4799 29.016 24.4931 28.9635 24.5218 28.9187C25.7835 26.9418 26.4633 24.67 26.4879 22.3477C26.4879 22.2572 26.4692 22.1675 26.4332 22.0837C26.3971 22 26.3444 21.924 26.2779 21.86L21.6037 17.0707C21.557 17.0331 21.4985 17.0126 21.4378 17.0126C21.3773 17.0126 21.3186 17.0331 21.2721 17.0707C21.2255 17.1081 21.1942 17.1602 21.1833 17.2178C21.1724 17.2754 21.1828 17.3347 21.2127 17.3857C23.0281 20.5591 21.467 25.1173 18.8637 27.6324L18.85 27.6457C18.4907 27.989 18.0056 28.1815 17.5002 28.1813C16.9948 28.1812 16.5098 27.9883 16.1508 27.6448L16.1382 27.6324C13.5339 25.1173 11.9736 20.5596 13.7893 17.3863C13.8192 17.3354 13.8296 17.2761 13.8187 17.2185C13.8079 17.1609 13.7764 17.1087 13.7299 17.0714C13.6834 17.0338 13.6247 17.0133 13.5642 17.0133C13.5036 17.0133 13.4449 17.0338 13.3984 17.0714L8.7232 21.8601Z" fill="#F53838"/>
</svg>
